<svg xmlns:dc="http://purl.org/dc/elements/1.1/" xmlns:cc="http://creativecommons.org/ns#" xmlns:rdf="http://www.w3.org/1999/02/22-rdf-syntax-ns#" xmlns:svg="http://www.w3.org/2000/svg" xmlns="http://www.w3.org/2000/svg" xmlns:xlink="http://www.w3.org/1999/xlink" id="svg224052" viewBox="0 0 1024 768" height="768px" width="1024px" version="1.1">
  <metadata id="metadata224058">
    <rdf:rdf>
      <cc:work rdf:about="">
        <dc:format>image/svg+xml</dc:format>
        <dc:type rdf:resource="http://purl.org/dc/dcmitype/StillImage"></dc:type>
      </cc:work>
    </rdf:rdf>
  </metadata>
  <defs id="defs224056"></defs>
  <linearGradient spreadMethod="pad" y2="30%" x2="-10%" y1="120%" x1="30%" id="3d_gradient2-logo-fda15c21-2cf8-41bf-aa21-f75525afa2a3">
    <stop id="stop224033" stop-opacity="1" stop-color="#ffffff" offset="0%"></stop>
    <stop id="stop224035" stop-opacity="1" stop-color="#000000" offset="100%"></stop>
  </linearGradient>
  <linearGradient gradientTransform="rotate(-30)" spreadMethod="pad" y2="30%" x2="-10%" y1="120%" x1="30%" id="3d_gradient3-logo-fda15c21-2cf8-41bf-aa21-f75525afa2a3">
    <stop id="stop224038" stop-opacity="1" stop-color="#ffffff" offset="0%"></stop>
    <stop id="stop224040" stop-opacity="1" stop-color="#cccccc" offset="50%"></stop>
    <stop id="stop224042" stop-opacity="1" stop-color="#000000" offset="100%"></stop>
  </linearGradient>
  <g id="logo-group">
    <image xlink:href="" id="container" x="272" y="144" width="480" height="480" style="display: none;" transform="translate(0 0)"></image>
    <g id="logo-center" transform="translate(-1.1368683772161603e-13 0)">
      <image xlink:href="" id="icon_container" x="0" y="0" style="display: none;"></image>
      <g id="slogan" style="font-style:normal;font-weight:400;font-size:32px;line-height:1;font-family:Questrial;font-variant-ligatures:none;text-align:center;text-anchor:middle" transform="translate(0 0)"></g>
      <g id="title" style="font-style:normal;font-weight:normal;font-size:72px;line-height:1;font-family:'Brandmark Sans 2';font-variant-ligatures:normal;text-align:center;text-anchor:middle" transform="translate(0 0)">
        <path id="path224061" style="font-style:normal;font-weight:normal;font-size:72px;line-height:1;font-family:'Brandmark Sans 2';font-variant-ligatures:normal;text-align:center;text-anchor:middle" d="m 412.01956,-50.4 -12.528,-0.072 -13.536,31.464 -13.536,-31.464 h -12.6 V 0 h 9.936 v -35.568 l 12.528,30.456 h 7.344 l 12.528,-30.384 0.072,35.568 h 9.792 z" stroke-width="0" stroke-linejoin="miter" stroke-miterlimit="2" fill="#ce3126" stroke="#ce3126" transform="translate(0 308.836) translate(255.49579250000005 31.1) scale(1.5) translate(-359.81956 50.472)"></path>
        <path id="path224063" style="font-style:normal;font-weight:normal;font-size:72px;line-height:1;font-family:'Brandmark Sans 2';font-variant-ligatures:normal;text-align:center;text-anchor:middle" d="m 427.15644,-44.424 c 3.672,0 6.264,-2.52 6.264,-6.12 0,-3.672 -2.592,-6.264 -6.264,-6.264 -3.672,0 -6.264,2.592 -6.264,6.264 0,3.6 2.592,6.12 6.264,6.12 z m -5.4,44.208 h 10.872 v -38.592 h -10.872 z" stroke-width="0" stroke-linejoin="miter" stroke-miterlimit="2" fill="#d32e38" stroke="#d32e38" transform="translate(0 308.836) translate(356.1051125000001 21.595999999999997) scale(1.5) translate(-420.89244 56.808)"></path>
        <path id="path224065" style="font-style:normal;font-weight:normal;font-size:72px;line-height:1;font-family:'Brandmark Sans 2';font-variant-ligatures:normal;text-align:center;text-anchor:middle" d="m 466.99381,-38.736 v 5.904 l -0.936,-1.296 c -2.448,-3.384 -6.12,-5.112 -10.584,-5.112 -9.144,0 -15.264,7.344 -15.264,18.216 0,11.16 6.264,18.648 15.552,18.648 4.392,0 7.92,-1.728 10.296,-5.04 l 0.936,-1.296 v 5.832 c 0,5.256 -3.816,8.64 -9.72,8.64 -3.888,0 -7.92,-1.296 -11.376,-3.672 l -3.672,7.632 c 4.536,3.096 10.296,4.896 15.984,4.896 11.952,0 19.656,-6.984 19.656,-17.856 v -35.496 z m -16.632,18.144 c 0,-6.048 3.456,-10.224 8.424,-10.224 3.672,0 6.84,2.304 8.208,5.976 l -0.072,8.424 c -1.368,3.672 -4.536,5.976 -8.136,5.976 -4.968,0 -8.424,-4.176 -8.424,-10.152 z" stroke-width="0" stroke-linejoin="miter" stroke-miterlimit="2" fill="#d82c49" stroke="#d82c49" transform="translate(0 308.836) translate(394.0811675 47.948) scale(1.5) translate(-440.20981 39.24)"></path>
        <path id="path224067" style="font-style:normal;font-weight:normal;font-size:72px;line-height:1;font-family:'Brandmark Sans 2';font-variant-ligatures:normal;text-align:center;text-anchor:middle" d="m 539.84769,-50.4 -12.528,-0.072 -13.536,31.464 -13.536,-31.464 h -12.6 V 0 h 9.936 v -35.568 l 12.528,30.456 h 7.344 l 12.528,-30.384 0.072,35.568 h 9.792 z" stroke-width="0" stroke-linejoin="miter" stroke-miterlimit="2" fill="#dd295b" stroke="#dd295b" transform="translate(0 308.836) translate(474.2379875 31.1) scale(1.5) translate(-487.64769 50.472)"></path>
        <path id="path224069" style="font-style:normal;font-weight:normal;font-size:72px;line-height:1;font-family:'Brandmark Sans 2';font-variant-ligatures:normal;text-align:center;text-anchor:middle" d="m 554.98456,-44.424 c 3.672,0 6.264,-2.52 6.264,-6.12 0,-3.672 -2.592,-6.264 -6.264,-6.264 -3.672,0 -6.264,2.592 -6.264,6.264 0,3.6 2.592,6.12 6.264,6.12 z m -5.4,44.208 h 10.872 v -38.592 h -10.872 z" stroke-width="0" stroke-linejoin="miter" stroke-miterlimit="2" fill="#e2266c" stroke="#e2266c" transform="translate(0 308.836) translate(574.8472924999999 21.595999999999997) scale(1.5) translate(-548.72056 56.808)"></path>
        <path id="path224071" style="font-style:normal;font-weight:normal;font-size:72px;line-height:1;font-family:'Brandmark Sans 2';font-variant-ligatures:normal;text-align:center;text-anchor:middle" d="m 594.82194,-38.736 v 5.904 l -0.936,-1.296 c -2.448,-3.384 -6.12,-5.112 -10.584,-5.112 -9.144,0 -15.264,7.344 -15.264,18.216 0,11.16 6.264,18.648 15.552,18.648 4.392,0 7.92,-1.728 10.296,-5.04 l 0.936,-1.296 v 5.832 c 0,5.256 -3.816,8.64 -9.72,8.64 -3.888,0 -7.92,-1.296 -11.376,-3.672 l -3.672,7.632 c 4.536,3.096 10.296,4.896 15.984,4.896 11.952,0 19.656,-6.984 19.656,-17.856 v -35.496 z m -16.632,18.144 c 0,-6.048 3.456,-10.224 8.424,-10.224 3.672,0 6.84,2.304 8.208,5.976 l -0.072,8.424 c -1.368,3.672 -4.536,5.976 -8.136,5.976 -4.968,0 -8.424,-4.176 -8.424,-10.152 z" stroke-width="0" stroke-linejoin="miter" stroke-miterlimit="2" fill="#e7247e" stroke="#e7247e" transform="translate(0 308.836) translate(612.8233625 47.948) scale(1.5) translate(-568.03794 39.24)"></path>
        <path id="path224073" style="font-style:normal;font-weight:normal;font-size:72px;line-height:1;font-family:'Brandmark Sans 2';font-variant-ligatures:normal;text-align:center;text-anchor:middle" d="m 625.33981,-25.272 0.144,0.072 c 0,-12.744 12.888,-24.48 28.224,-23.04 -3.672,-1.656 -7.848,-2.592 -12.312,-2.592 -15.552,0 -27.288,11.016 -27.288,25.56 0,14.76 11.736,25.848 27.288,25.848 2.376,0 4.68,-0.288 6.84,-0.792 -13.68,-1.584 -22.896,-13.32 -22.896,-25.056 z m 16.128,-15.696 c 8.64,0 15.768,7.128 15.84,15.768 0.072,8.712 -7.056,15.912 -15.768,15.912 8.064,3.384 17.208,0.648 21.672,-6.12 5.4,-8.208 1.872,-19.296 -5.472,-24.048 l -0.144,-0.072 c -6.984,-4.536 -15.048,-1.8 -16.128,-1.44 z" stroke-width="0" stroke-linejoin="miter" stroke-miterlimit="2" fill="#ec218f" stroke="#ec218f" transform="translate(0 308.836) translate(690.9281675 30.559999999999995) scale(1.5) translate(-614.10781 50.832)"></path>
      </g>
      <image xlink:href="" id="icon" x="0" y="0" style="display: none;"></image>
    </g>
  </g>
</svg>